<svg width="192" height="166" viewBox="0 0 192 166" fill="none" xmlns="http://www.w3.org/2000/svg">
<path d="M71.9882 149.333C76.4065 149.333 79.9882 152.915 79.9882 157.333C79.9882 161.752 76.4065 165.333 71.9882 165.333C67.5699 165.333 63.9882 161.752 63.9882 157.333C63.9882 152.915 67.5699 149.333 71.9882 149.333ZM119.988 149.333C124.406 149.333 127.988 152.915 127.988 157.333C127.988 161.752 124.406 165.333 119.988 165.333C115.57 165.333 111.988 161.752 111.988 157.333C111.988 152.915 115.57 149.333 119.988 149.333ZM47.9882 138.667C52.4065 138.667 55.9882 142.248 55.9882 146.667C55.9882 151.085 52.4065 154.667 47.9882 154.667C43.5699 154.667 39.9882 151.085 39.9882 146.667C39.9882 142.248 43.5699 138.667 47.9882 138.667ZM95.9882 138.667C100.406 138.667 103.988 142.248 103.988 146.667C103.988 151.085 100.406 154.667 95.9882 154.667C91.5699 154.667 87.9882 151.085 87.9882 146.667C87.9882 142.248 91.5699 138.667 95.9882 138.667ZM143.988 138.667C148.406 138.667 151.988 142.248 151.988 146.667C151.988 151.085 148.406 154.667 143.988 154.667C139.57 154.667 135.988 151.085 135.988 146.667C135.988 142.248 139.57 138.667 143.988 138.667ZM95.9941 0C129.792 0 148.965 22.3711 151.753 49.388L152.606 49.388C174.356 49.388 191.988 66.9744 191.988 88.6683C191.988 110.362 174.356 127.949 152.606 127.949H39.3822C17.632 127.949 0 110.362 0 88.6683C0 66.9744 17.632 49.388 39.3824 49.388L40.2352 49.388C43.0398 22.1935 62.1964 0 95.9941 0ZM95.9941 13.3076C73.2685 13.3076 53.4606 31.6967 53.4606 57.0973C53.4606 61.122 49.9612 64.2802 45.9543 64.28L38.3778 64.2798C24.5428 64.2798 13.3272 75.5535 13.3272 89.4604C13.3272 103.367 24.5428 114.641 38.3778 114.641H153.61C167.445 114.641 178.661 103.367 178.661 89.4604C178.661 75.5535 167.445 64.2798 153.611 64.2798L146.034 64.28C142.027 64.2802 138.528 61.122 138.528 57.0973C138.528 31.3709 118.72 13.3076 95.9941 13.3076Z" fill="#4793FF" stroke="#0F16E6" stroke-width="0.00256"/>
</svg>
